<svg width="675" height="211" viewBox="0 0 675 211" version="1.1" xmlns="http://www.w3.org/2000/svg" xmlns:xlink="http://www.w3.org/1999/xlink">
<title>Logo White</title>
<desc>Created using Figma</desc>
<g id="Canvas" transform="translate(-275 -1885)">
<g id="Logo White">
<g id="Group">
<g id="Vector">
<use xlink:href="#path0_fill" transform="translate(613.505 2044.63)" fill="#FFFFFF"/>
</g>
<g id="Vector">
<use xlink:href="#path1_fill" transform="translate(526.145 1950)" fill="#FFFFFF"/>
</g>
</g>
<g id="Vector 23">
<use xlink:href="#path2_fill" transform="translate(275 1885)" fill="#FFFFFF"/>
<use xlink:href="#path3_fill" transform="translate(275 1885)" fill="#FFFFFF"/>
</g>
</g>
</g>
<defs>
<path id="path0_fill" d="M 37.7007 49.7285L 31.1983 49.7285L 31.1983 27.0542L 6.46877 27.0542L 6.46877 49.7285L 2.04773e-07 49.7285L 2.04773e-07 0.6738L 6.46877 0.6738L 6.46877 21.7646L 31.1983 21.7646L 31.1983 0.6738L 37.7007 0.6738L 37.7007 49.7285ZM 46.5616 31.1645C 46.5616 27.5932 47.2578 24.3813 48.6504 21.5288C 50.0655 18.6763 52.0196 16.4751 54.5127 14.9253C 57.0283 13.3755 59.8921 12.6006 63.104 12.6006C 68.0679 12.6006 72.0772 14.3188 75.1319 17.7554C 78.209 21.1919 79.7476 25.7627 79.7476 31.4678L 79.7476 31.9057C 79.7476 35.4546 79.0625 38.644 77.6924 41.4741C 76.3448 44.2817 74.4019 46.4717 71.8638 48.0439C 69.3482 49.6162 66.4507 50.4023 63.1714 50.4023C 58.23 50.4023 54.2207 48.6841 51.1436 45.2475C 48.0889 41.811 46.5616 37.2627 46.5616 31.6025L 46.5616 31.1645ZM 52.8282 31.9057C 52.8282 35.9487 53.7603 39.1943 55.6245 41.6426C 57.5113 44.0908 60.0269 45.3149 63.1714 45.3149C 66.3384 45.3149 68.854 44.0796 70.7183 41.6089C 72.5825 39.1157 73.5147 35.6343 73.5147 31.1645C 73.5147 27.1665 72.5601 23.9321 70.6509 21.4614C 68.7642 18.9682 66.2486 17.7217 63.104 17.7217C 60.0269 17.7217 57.5449 18.9458 55.6582 21.394C 53.7715 23.8423 52.8282 27.3462 52.8282 31.9057ZM 93.4263 13.2744L 93.5948 17.3174C 96.2675 14.1728 99.8725 12.6006 104.409 12.6006C 109.508 12.6006 112.978 14.5547 114.82 18.4629C 116.033 16.7109 117.605 15.2959 119.537 14.2178C 121.491 13.1396 123.793 12.6006 126.443 12.6006C 134.439 12.6006 138.505 16.8345 138.64 25.3022L 138.64 49.7285L 132.407 49.7285L 132.407 25.6728C 132.407 23.0674 131.812 21.1245 130.621 19.8442C 129.431 18.5415 127.432 17.8901 124.624 17.8901C 122.311 17.8901 120.39 18.5864 118.863 19.979C 117.335 21.3491 116.448 23.2021 116.201 25.5381L 116.201 49.7285L 109.935 49.7285L 109.935 25.8413C 109.935 20.5405 107.34 17.8901 102.152 17.8901C 98.0645 17.8901 95.2685 19.6308 93.7632 23.1123L 93.7632 49.7285L 87.5303 49.7285L 87.5303 13.2744L 93.4263 13.2744ZM 163.201 50.4023C 158.259 50.4023 154.239 48.7851 151.139 45.5508C 148.04 42.2939 146.49 37.9477 146.49 32.5122L 146.49 31.3667C 146.49 27.7505 147.175 24.5273 148.545 21.6973C 149.938 18.8447 151.869 16.6211 154.34 15.0264C 156.833 13.4092 159.528 12.6006 162.426 12.6006C 167.165 12.6006 170.849 14.1616 173.477 17.2837C 176.105 20.4057 177.418 24.8755 177.418 30.6929L 177.418 33.2871L 152.723 33.2871C 152.813 36.8808 153.857 39.7895 155.856 42.0132C 157.877 44.2143 160.438 45.3149 163.538 45.3149C 165.739 45.3149 167.603 44.8657 169.13 43.9673C 170.658 43.0688 171.994 41.8784 173.14 40.396L 176.947 43.3608C 173.892 48.0552 169.31 50.4023 163.201 50.4023ZM 162.426 17.7217C 159.91 17.7217 157.799 18.6426 156.092 20.4844C 154.385 22.3037 153.329 24.8642 152.925 28.166L 171.186 28.166L 171.186 27.6943C 171.006 24.5273 170.152 22.0791 168.625 20.3496C 167.098 18.5976 165.031 17.7217 162.426 17.7217ZM 238.838 34.1631C 238.231 39.3515 236.311 43.3608 233.077 46.1909C 229.865 48.9985 225.586 50.4023 220.24 50.4023C 214.445 50.4023 209.796 48.3247 206.292 44.1694C 202.811 40.0141 201.07 34.4551 201.07 27.4922L 201.07 22.7754C 201.07 18.2158 201.878 14.2065 203.496 10.7475C 205.135 7.2886 207.449 4.6382 210.436 2.7964C 213.423 0.9321 216.882 -3.66211e-07 220.813 -3.66211e-07C 226.024 -3.66211e-07 230.202 1.4599 233.346 4.3799C 236.491 7.2773 238.321 11.2978 238.838 16.4414L 232.335 16.4414C 231.774 12.5332 230.55 9.7031 228.663 7.9512C 226.799 6.1992 224.182 5.3232 220.813 5.3232C 216.68 5.3232 213.435 6.8506 211.076 9.9053C 208.74 12.9599 207.572 17.3061 207.572 22.9438L 207.572 27.6943C 207.572 33.0176 208.684 37.2514 210.908 40.396C 213.131 43.5405 216.242 45.1128 220.24 45.1128C 223.834 45.1128 226.585 44.3042 228.495 42.687C 230.426 41.0473 231.707 38.206 232.335 34.1631L 238.838 34.1631ZM 269.228 49.7285C 268.868 49.0097 268.576 47.7295 268.352 45.8877C 265.454 48.8974 261.995 50.4023 257.975 50.4023C 254.381 50.4023 251.427 49.3916 249.114 47.3701C 246.823 45.3262 245.677 42.7431 245.677 39.6211C 245.677 35.8252 247.115 32.8828 249.99 30.7939C 252.887 28.6826 256.953 27.6269 262.186 27.6269L 268.251 27.6269L 268.251 24.7632C 268.251 22.5845 267.599 20.855 266.296 19.5747C 264.994 18.272 263.073 17.6206 260.535 17.6206C 258.312 17.6206 256.447 18.1821 254.942 19.3052C 253.438 20.4282 252.685 21.7871 252.685 23.3818L 246.418 23.3818C 246.418 21.5625 247.059 19.8105 248.339 18.126C 249.642 16.4189 251.394 15.0713 253.595 14.083C 255.818 13.0947 258.255 12.6006 260.906 12.6006C 265.106 12.6006 268.396 13.6562 270.777 15.7676C 273.158 17.8564 274.394 20.7427 274.483 24.4263L 274.483 41.2046C 274.483 44.5513 274.91 47.2129 275.764 49.1894L 275.764 49.7285L 269.228 49.7285ZM 258.884 44.978C 260.838 44.978 262.691 44.4726 264.443 43.4619C 266.195 42.4512 267.464 41.1372 268.251 39.52L 268.251 32.0405L 263.365 32.0405C 255.729 32.0405 251.91 34.2754 251.91 38.7451C 251.91 40.6992 252.562 42.2265 253.864 43.3271C 255.167 44.4277 256.84 44.978 258.884 44.978ZM 301.875 18.8672C 300.931 18.7099 299.909 18.6313 298.809 18.6313C 294.721 18.6313 291.947 20.3721 290.487 23.8535L 290.487 49.7285L 284.254 49.7285L 284.254 13.2744L 290.318 13.2744L 290.419 17.4858C 292.463 14.229 295.361 12.6006 299.112 12.6006C 300.326 12.6006 301.246 12.7578 301.875 13.0723L 301.875 18.8672ZM 322.089 50.4023C 317.148 50.4023 313.127 48.7851 310.028 45.5508C 306.928 42.2939 305.378 37.9477 305.378 32.5122L 305.378 31.3667C 305.378 27.7505 306.063 24.5273 307.434 21.6973C 308.826 18.8447 310.758 16.6211 313.229 15.0264C 315.722 13.4092 318.417 12.6006 321.314 12.6006C 326.054 12.6006 329.737 14.1616 332.365 17.2837C 334.993 20.4057 336.307 24.8755 336.307 30.6929L 336.307 33.2871L 311.611 33.2871C 311.701 36.8808 312.746 39.7895 314.745 42.0132C 316.766 44.2143 319.327 45.3149 322.426 45.3149C 324.627 45.3149 326.492 44.8657 328.019 43.9673C 329.546 43.0688 330.883 41.8784 332.028 40.396L 335.835 43.3608C 332.781 48.0552 328.199 50.4023 322.089 50.4023ZM 321.314 17.7217C 318.799 17.7217 316.688 18.6426 314.98 20.4844C 313.273 22.3037 312.218 24.8642 311.813 28.166L 330.074 28.166L 330.074 27.6943C 329.895 24.5273 329.041 22.0791 327.514 20.3496C 325.986 18.5976 323.92 17.7217 321.314 17.7217Z"/>
<path id="path1_fill" d="M 6.46973e-08 75.3594L 6.46973e-08 2.04468e-07L 25.8271 2.04468e-07C 34.3499 2.04468e-07 40.8369 1.708 45.288 5.124C 49.7392 8.5401 51.9648 13.6296 51.9648 20.3926C 51.9648 23.8431 51.0332 26.9486 49.1699 29.709C 47.3066 32.4694 44.5807 34.6087 40.9921 36.127C 45.0638 37.2311 48.2037 39.3187 50.4121 42.3897C 52.6549 45.4261 53.7763 49.0837 53.7763 53.3623C 53.7763 60.4359 51.499 65.8705 46.9443 69.666C 42.4241 73.4616 35.9371 75.3594 27.4834 75.3594L 6.46973e-08 75.3594ZM 13.0947 41.3545L 13.0947 64.9043L 27.6386 64.9043C 31.7447 64.9043 34.9537 63.8864 37.2656 61.8506C 39.5774 59.8148 40.7334 56.9854 40.7334 53.3623C 40.7334 45.5296 36.7308 41.527 28.7255 41.3545L 13.0947 41.3545ZM 13.0947 31.7276L 25.9306 31.7276C 30.0022 31.7276 33.1767 30.8132 35.4541 28.9844C 37.7659 27.1211 38.9218 24.4987 38.9218 21.1172C 38.9218 17.3906 37.8522 14.6992 35.7128 13.043C 33.608 11.3867 30.3128 10.5586 25.8271 10.5586L 13.0947 10.5586L 13.0947 31.7276ZM 116.217 41.7168L 85.2658 41.7168L 85.2658 64.9043L 121.445 64.9043L 121.445 75.3594L 72.1711 75.3594L 72.1711 2.04468e-07L 121.082 2.04468e-07L 121.082 10.5586L 85.2658 10.5586L 85.2658 31.3653L 116.217 31.3653L 116.217 41.7168ZM 150.502 64.9043L 184.713 64.9043L 184.713 75.3594L 137.407 75.3594L 137.407 2.04468e-07L 150.502 2.04468e-07L 150.502 64.9043ZM 213.874 75.3594L 200.831 75.3594L 200.831 2.04468e-07L 213.874 2.04468e-07L 213.874 75.3594ZM 279.316 41.7168L 248.365 41.7168L 248.365 64.9043L 284.544 64.9043L 284.544 75.3594L 235.27 75.3594L 235.27 2.04468e-07L 284.182 2.04468e-07L 284.182 10.5586L 248.365 10.5586L 248.365 31.3653L 279.316 31.3653L 279.316 41.7168ZM 327.058 58.9522L 346.208 2.04468e-07L 360.597 2.04468e-07L 333.476 75.3594L 320.795 75.3594L 293.778 2.04468e-07L 308.114 2.04468e-07L 327.058 58.9522ZM 418.483 41.7168L 387.532 41.7168L 387.532 64.9043L 423.71 64.9043L 423.71 75.3594L 374.437 75.3594L 374.437 2.04468e-07L 423.348 2.04468e-07L 423.348 10.5586L 387.532 10.5586L 387.532 31.3653L 418.483 31.3653L 418.483 41.7168Z"/>
<path id="path2_fill" d="M 65.5 209L 95.5 209L 95.5 143.5L 78 143.5L 104.5 117L 104.5 73.5L 128 73.5L 128 89L 143.5 73.5L 209 139L 209 65.5L 143.5 65.5L 143.5 0L 65.5 0L 65.5 65.5L 0 65.5L 0 143.5L 65.5 143.5L 65.5 209Z"/>
<path id="path3_fill" d="M 100 139L 100 209L 143.5 209L 143.5 143.5L 208.5 143.5L 144 79.5L 124 98.5L 124 77.5L 108.5 77.5L 108.5 118.5L 88 139L 100 139Z"/>
</defs>
</svg>
