<svg width="277" height="254" viewBox="0 0 277 254" version="1.1" xmlns="http://www.w3.org/2000/svg" xmlns:xlink="http://www.w3.org/1999/xlink">
<title>house</title>
<desc>Created using Figma</desc>
<g id="Canvas" transform="translate(192 170)">
<g id="house">
<g id="Canvas">
<g id="house">
<g id="Vector 14">
<g id="Vector">
<use xlink:href="#path0_fill" transform="translate(-170.974 -82.5026)" fill="#1B87E5"/>
</g>
</g>
<g id="Ellipse 10">
<g id="Vector">
<use xlink:href="#path1_fill" transform="translate(-65.4738 17.9974)" fill="#1B87E5"/>
</g>
</g>
<g id="Vector 13">
<g id="Vector">
<use xlink:href="#path2_fill" transform="translate(-192 -170)" fill="#1B87E5"/>
</g>
</g>
<g id="Vector">
<g id="Vector">
<use xlink:href="#path3_fill" transform="translate(-31.4738 -16.0026)" fill="#F4F6F8"/>
</g>
</g>
<g id="Vector">
<g id="Vector">
<use xlink:href="#path4_fill" transform="translate(-18.4738 -5.00256)" fill="#F4F6F8"/>
</g>
<mask id="mask0_alpha" mask-type="alpha">
<g id="mask0 outline ins">
<g id="Vector">
<use xlink:href="#path4_fill" transform="translate(-18.4738 -5.00256)" fill="#415B76"/>
</g>
</g>
</mask>
<g id="Group" mask="url(#mask0_alpha)">
<g id="Vector">
<use xlink:href="#path5_fill" transform="translate(-27.4755 -14.0037)" fill="#1B87E5"/>
</g>
</g>
</g>
</g>
</g>
</g>
</g>
<defs>
<path id="path0_fill" d="M 0 6.5L 0 134.5L 9 134.5L 9 6.5L 0 6.5ZM 6.5 141L 62.5 141L 62.5 132L 6.5 132L 6.5 141ZM 69 134.5L 69 52.5L 60 52.5L 60 134.5L 69 134.5ZM 66.5 55L 126.5 55L 126.5 46L 66.5 46L 66.5 55ZM 124 52.5L 124 134.5L 133 134.5L 133 52.5L 124 52.5ZM 130.5 141L 186.5 141L 186.5 132L 130.5 132L 130.5 141ZM 193 134.5L 193 6.5L 184 6.5L 184 134.5L 193 134.5ZM 186.5 0L 6.5 0L 6.5 9L 186.5 9L 186.5 0ZM 9 6.5C 9 7.88071 7.88071 9 6.5 9L 6.5 0C 2.91015 0 0 2.91015 0 6.5L 9 6.5ZM 0 134.5C 0 138.09 2.91015 141 6.5 141L 6.5 132C 7.88071 132 9 133.119 9 134.5L 0 134.5ZM 62.5 141C 66.0899 141 69 138.09 69 134.5L 60 134.5C 60 133.119 61.1193 132 62.5 132L 62.5 141ZM 69 52.5C 69 53.8807 67.8807 55 66.5 55L 66.5 46C 62.9101 46 60 48.9101 60 52.5L 69 52.5ZM 126.5 55C 125.119 55 124 53.8807 124 52.5L 133 52.5C 133 48.9101 130.09 46 126.5 46L 126.5 55ZM 124 134.5C 124 138.09 126.91 141 130.5 141L 130.5 132C 131.881 132 133 133.119 133 134.5L 124 134.5ZM 186.5 141C 190.09 141 193 138.09 193 134.5L 184 134.5C 184 133.119 185.119 132 186.5 132L 186.5 141ZM 193 6.5C 193 2.91015 190.09 0 186.5 0L 186.5 9C 185.119 9 184 7.88071 184 6.5L 193 6.5Z"/>
<path id="path1_fill" d="M 12 6C 12 9.31371 9.31371 12 6 12C 2.68629 12 0 9.31371 0 6C 0 2.68629 2.68629 0 6 0C 9.31371 0 12 2.68629 12 6Z"/>
<path id="path2_fill" d="M 118.728 4.90164L 121.433 1.30533L 118.728 4.90164ZM 5.31043 88.399L 2.60552 84.8027L 5.31043 88.399ZM 116.324 4.90164L 113.619 1.30533L 116.324 4.90164ZM 6.51262 96.4974L 228.54 96.4974L 228.54 87.4974L 6.51262 87.4974L 6.51262 96.4974ZM 232.447 84.8027L 121.433 1.30533L 116.023 8.49795L 227.037 91.9953L 232.447 84.8027ZM 113.619 1.30533L 2.60552 84.8027L 8.01535 91.9953L 119.029 8.49795L 113.619 1.30533ZM 6.51262 87.4974C 8.91342 87.4974 9.93402 90.5522 8.01535 91.9953L 2.60552 84.8027C -2.38303 88.5548 0.270534 96.4974 6.51262 96.4974L 6.51262 87.4974ZM 228.54 96.4974C 234.782 96.4974 237.435 88.5548 232.447 84.8027L 227.037 91.9953C 225.118 90.5522 226.139 87.4974 228.54 87.4974L 228.54 96.4974ZM 121.433 1.30533C 119.119 -0.43511 115.933 -0.43511 113.619 1.30533L 119.029 8.49795C 118.139 9.16735 116.913 9.16735 116.023 8.49795L 121.433 1.30533Z"/>
<path id="path3_fill" d="M 101.968 6.80853C 96.6287 2.43167 89.7712 0.026318 82.6631 0.026318C 74.4531 0.026318 66.5059 3.26076 60.8623 8.91019C 59.8479 9.92728 58.8967 11.0191 58.004 12.2049C 51.093 3.09205 39.5454 -1.58367 28.1244 0.484251C 18.647 2.18824 11.196 7.34841 5.99267 15.8105C -1.3489 27.7577 -1.94975 39.2807 4.21688 50.0614C 7.51304 55.8289 11.7895 61.4494 17.2921 67.2434C 27.3703 77.8578 39.2997 87.9323 54.8367 98.9371C 55.8292 99.6433 56.8923 100 58.0015 100C 59.7092 100 60.8622 99.1444 61.4339 98.725C 75.4529 88.8072 86.4653 79.6654 96.0935 69.9404C 101.47 64.5127 107.57 57.8414 112.032 49.5094C 113.944 45.9496 116.123 41.1582 115.995 35.6847C 115.707 23.9062 110.991 14.1909 101.968 6.80853Z"/>
<path id="path4_fill" d="M 79.1133 5.31065C 74.9705 1.8967 69.6501 0.0205275 64.1352 0.0205275C 57.7654 0.0205275 51.5994 2.5434 47.2207 6.94995C 46.4337 7.74328 45.6957 8.59489 45.0031 9.51981C 39.6411 2.4118 30.6818 -1.23526 21.8207 0.377715C 14.4675 1.70683 8.68654 5.73176 4.64948 12.3322C -1.04656 21.651 -1.51274 30.6389 3.27171 39.0479C 5.82908 43.5465 9.14706 47.9305 13.4163 52.4499C 21.2356 60.7291 30.4912 68.5872 42.5457 77.1709C 43.3158 77.7218 44.1405 78 45.0012 78C 46.3261 78 47.2207 77.3326 47.6642 77.0055C 58.5411 69.2696 67.0851 62.139 74.5553 54.5535C 78.7264 50.3199 83.4599 45.1163 86.9213 38.6174C 88.4047 35.8407 90.0958 32.1034 89.9958 27.8341C 89.7731 18.6469 86.1135 11.0689 79.1133 5.31065Z"/>
<path id="path5_fill" d="M 88.115 14.3117L 82.3913 21.2573L 82.3975 21.2624L 88.115 14.3117ZM 56.2224 15.951L 49.8383 9.60729L 49.8331 9.61249L 56.2224 15.951ZM 54.0048 18.5209L 46.8198 23.9409L 54.031 33.5003L 61.2086 23.9158L 54.0048 18.5209ZM 30.8224 9.37879L 32.4232 18.2353L 32.4341 18.2333L 30.8224 9.37879ZM 13.6512 21.3333L 5.97348 16.6373L 5.97213 16.6395L 13.6512 21.3333ZM 12.2735 48.049L 20.0975 43.6012L 20.0959 43.5982L 12.2735 48.049ZM 22.418 61.451L 28.961 55.2713L 28.9604 55.2707L 22.418 61.451ZM 51.5474 86.172L 56.7835 78.852L 56.7757 78.8464L 56.7678 78.8408L 51.5474 86.172ZM 56.6659 86.0066L 51.4497 78.6724L 51.3864 78.7174L 51.324 78.7634L 56.6659 86.0066ZM 83.557 63.5546L 77.1459 57.2382L 77.1445 57.2396L 83.557 63.5546ZM 95.923 47.6185L 87.9848 43.3774L 87.9794 43.3876L 95.923 47.6185ZM 98.9975 36.8352L 107.995 36.6244L 107.995 36.6171L 98.9975 36.8352ZM 93.8386 7.36622C 88.3983 3.0613 80.17 0.15059 73.1369 0.0215996L 73.1369 18.0216C 77.1335 17.8926 79.5462 18.7342 82.3913 21.2573L 93.8386 7.36622ZM 73.1369 0.0215996C 64.4433 0.0215996 55.9572 3.44938 49.8383 9.60729L 62.6065 22.2948C 65.2449 19.6396 69.0908 18.0216 73.1369 18.0216L 73.1369 0.0215996ZM 49.8331 9.61249C 48.8362 10.6246 47.6903 11.948 46.8009 13.126L 61.2086 23.9158C 61.7046 23.244 62.0346 22.8641 62.6117 22.2896L 49.8331 9.61249ZM 61.1897 13.1009C 53.835 3.35122 41.5065 -1.71393 29.2106 0.524279L 32.4341 18.2333C 37.8605 17.2455 43.4506 19.4745 46.8198 23.9409L 61.1897 13.1009ZM 29.2215 0.5223C 19.2416 2.32621 11.2959 7.93538 5.97348 16.6373L 21.3289 26.0293C 24.0807 21.5303 27.6968 19.0896 32.4232 18.2353L 29.2215 0.5223ZM 5.97213 16.6395C -1.16336 28.3133 -2.19336 40.822 4.451 52.4997L 20.0959 43.5982C 17.1713 38.4581 17.0737 32.9909 21.3303 26.0271L 5.97213 16.6395ZM 4.44932 52.4968C 7.31446 57.4978 11.2792 62.7461 15.8756 67.6313L 28.9604 55.2707C 25.0184 51.1171 22.3471 47.5974 20.0975 43.6012L 4.44932 52.4968ZM 15.8749 67.6306C 24.0439 76.2603 33.9652 84.6908 46.327 93.5033L 56.7678 78.8408C 45.0205 70.4858 36.4306 63.2001 28.961 55.2713L 15.8749 67.6306ZM 46.3113 93.4921C 48.2163 94.7341 51.6846 95.8823 54.0029 96.0011L 54.0029 78.0011C 55.2058 78.0011 56.1845 78.4235 56.7835 78.852L 46.3113 93.4921ZM 54.0029 96.0011C 58.1629 95.5429 61.5841 93.5623 62.0079 93.2498L 51.324 78.7634C 50.9985 79.0035 52.175 78.0011 54.0029 78.0011L 54.0029 96.0011ZM 61.8822 93.3408C 73.0384 85.398 82.1837 77.7604 89.9695 69.8696L 77.1445 57.2396C 69.99 64.5198 62.0472 71.1434 51.4497 78.6724L 61.8822 93.3408ZM 89.9681 69.8711C 94.2637 65.5085 99.819 59.3009 103.867 51.8493L 87.9794 43.3876C 85.1042 48.9339 81.1924 53.1335 77.1459 57.2382L 89.9681 69.8711ZM 103.861 51.8595C 105.48 48.8196 107.917 42.8991 107.995 36.6244L 89.9999 37.046C 90.0433 38.8948 89.3026 40.911 87.9849 43.3774L 103.861 51.8595ZM 107.995 36.6171C 107.71 24.8595 102.886 14.808 93.8324 7.36111L 82.3975 21.2624C 87.3448 25.3319 89.8397 30.4365 90.0001 37.0533L 107.995 36.6171Z"/>
</defs>
</svg>
