<svg width="675" height="211" viewBox="0 0 675 211" version="1.1" xmlns="http://www.w3.org/2000/svg" xmlns:xlink="http://www.w3.org/1999/xlink">
<title>Logo Blue</title>
<desc>Created using Figma</desc>
<g id="Canvas" transform="translate(-275 -1639)">
<g id="Logo Blue">
<g id="Home Care">
<use xlink:href="#path0_fill" transform="translate(607 1785)" fill="#092F57"/>
</g>
<g id="BELIEVE">
<use xlink:href="#path1_fill" transform="translate(518 1682)" fill="#092F57"/>
</g>
<g id="Vector 23">
<use xlink:href="#path2_fill" transform="translate(275 1639)" fill="#0068AC"/>
<use xlink:href="#path3_fill" transform="translate(275 1639)" fill="#0068AC"/>
</g>
</g>
</g>
<defs>
<path id="path0_fill" d="M 43.8662 64L 37.3638 64L 37.3638 41.3257L 12.6343 41.3257L 12.6343 64L 6.16553 64L 6.16553 14.9453L 12.6343 14.9453L 12.6343 36.0361L 37.3638 36.0361L 37.3638 14.9453L 43.8662 14.9453L 43.8662 64ZM 52.7271 45.436C 52.7271 41.8647 53.4233 38.6528 54.8159 35.8003C 56.231 32.9478 58.1851 30.7466 60.6782 29.1968C 63.1938 27.647 66.0576 26.8721 69.2695 26.8721C 74.2334 26.8721 78.2427 28.5903 81.2974 32.0269C 84.3745 35.4634 85.9131 40.0342 85.9131 45.7393L 85.9131 46.1772C 85.9131 49.7261 85.228 52.9155 83.8579 55.7456C 82.5103 58.5532 80.5674 60.7432 78.0293 62.3154C 75.5137 63.8877 72.6162 64.6738 69.3369 64.6738C 64.3955 64.6738 60.3862 62.9556 57.3091 59.519C 54.2544 56.0825 52.7271 51.5342 52.7271 45.874L 52.7271 45.436ZM 58.9937 46.1772C 58.9937 50.2202 59.9258 53.4658 61.79 55.9141C 63.6768 58.3623 66.1924 59.5864 69.3369 59.5864C 72.5039 59.5864 75.0195 58.3511 76.8838 55.8804C 78.748 53.3872 79.6802 49.9058 79.6802 45.436C 79.6802 41.438 78.7256 38.2036 76.8164 35.7329C 74.9297 33.2397 72.4141 31.9932 69.2695 31.9932C 66.1924 31.9932 63.7104 33.2173 61.8237 35.6655C 59.937 38.1138 58.9937 41.6177 58.9937 46.1772ZM 99.5918 27.5459L 99.7603 31.5889C 102.433 28.4443 106.038 26.8721 110.575 26.8721C 115.674 26.8721 119.144 28.8262 120.986 32.7344C 122.199 30.9824 123.771 29.5674 125.703 28.4893C 127.657 27.4111 129.959 26.8721 132.609 26.8721C 140.605 26.8721 144.671 31.106 144.806 39.5737L 144.806 64L 138.573 64L 138.573 39.9443C 138.573 37.3389 137.978 35.396 136.787 34.1157C 135.597 32.813 133.598 32.1616 130.79 32.1616C 128.477 32.1616 126.556 32.8579 125.029 34.2505C 123.501 35.6206 122.614 37.4736 122.367 39.8096L 122.367 64L 116.101 64L 116.101 40.1128C 116.101 34.812 113.506 32.1616 108.318 32.1616C 104.23 32.1616 101.434 33.9023 99.9287 37.3838L 99.9287 64L 93.6958 64L 93.6958 27.5459L 99.5918 27.5459ZM 169.367 64.6738C 164.425 64.6738 160.405 63.0566 157.305 59.8223C 154.206 56.5654 152.656 52.2192 152.656 46.7837L 152.656 45.6382C 152.656 42.022 153.341 38.7988 154.711 35.9688C 156.104 33.1162 158.035 30.8926 160.506 29.2979C 162.999 27.6807 165.694 26.8721 168.592 26.8721C 173.331 26.8721 177.015 28.4331 179.643 31.5552C 182.271 34.6772 183.584 39.147 183.584 44.9644L 183.584 47.5586L 158.889 47.5586C 158.979 51.1523 160.023 54.061 162.022 56.2847C 164.043 58.4858 166.604 59.5864 169.704 59.5864C 171.905 59.5864 173.769 59.1372 175.296 58.2388C 176.824 57.3403 178.16 56.1499 179.306 54.6675L 183.113 57.6323C 180.058 62.3267 175.476 64.6738 169.367 64.6738ZM 168.592 31.9932C 166.076 31.9932 163.965 32.9141 162.258 34.7559C 160.551 36.5752 159.495 39.1357 159.091 42.4375L 177.352 42.4375L 177.352 41.9658C 177.172 38.7988 176.318 36.3506 174.791 34.6211C 173.264 32.8691 171.197 31.9932 168.592 31.9932ZM 245.004 48.4346C 244.397 53.623 242.477 57.6323 239.243 60.4624C 236.031 63.27 231.752 64.6738 226.406 64.6738C 220.611 64.6738 215.962 62.5962 212.458 58.4409C 208.977 54.2856 207.236 48.7266 207.236 41.7637L 207.236 37.0469C 207.236 32.4873 208.044 28.478 209.662 25.019C 211.301 21.5601 213.615 18.9097 216.602 17.0679C 219.589 15.2036 223.048 14.2715 226.979 14.2715C 232.19 14.2715 236.368 15.7314 239.512 18.6514C 242.657 21.5488 244.487 25.5693 245.004 30.7129L 238.501 30.7129C 237.94 26.8047 236.716 23.9746 234.829 22.2227C 232.965 20.4707 230.348 19.5947 226.979 19.5947C 222.846 19.5947 219.601 21.1221 217.242 24.1768C 214.906 27.2314 213.738 31.5776 213.738 37.2153L 213.738 41.9658C 213.738 47.2891 214.85 51.5229 217.074 54.6675C 219.297 57.812 222.408 59.3843 226.406 59.3843C 230 59.3843 232.751 58.5757 234.661 56.9585C 236.592 55.3188 237.873 52.4775 238.501 48.4346L 245.004 48.4346ZM 275.394 64C 275.034 63.2812 274.742 62.001 274.518 60.1592C 271.62 63.1689 268.161 64.6738 264.141 64.6738C 260.547 64.6738 257.593 63.6631 255.28 61.6416C 252.989 59.5977 251.843 57.0146 251.843 53.8926C 251.843 50.0967 253.281 47.1543 256.156 45.0654C 259.053 42.9541 263.119 41.8984 268.352 41.8984L 274.417 41.8984L 274.417 39.0347C 274.417 36.856 273.765 35.1265 272.462 33.8462C 271.16 32.5435 269.239 31.8921 266.701 31.8921C 264.478 31.8921 262.613 32.4536 261.108 33.5767C 259.604 34.6997 258.851 36.0586 258.851 37.6533L 252.584 37.6533C 252.584 35.834 253.225 34.082 254.505 32.3975C 255.808 30.6904 257.56 29.3428 259.761 28.3545C 261.984 27.3662 264.421 26.8721 267.072 26.8721C 271.272 26.8721 274.562 27.9277 276.943 30.0391C 279.324 32.1279 280.56 35.0142 280.649 38.6978L 280.649 55.4761C 280.649 58.8228 281.076 61.4844 281.93 63.4609L 281.93 64L 275.394 64ZM 265.05 59.2495C 267.004 59.2495 268.857 58.7441 270.609 57.7334C 272.361 56.7227 273.63 55.4087 274.417 53.7915L 274.417 46.312L 269.531 46.312C 261.895 46.312 258.076 48.5469 258.076 53.0166C 258.076 54.9707 258.728 56.498 260.03 57.5986C 261.333 58.6992 263.006 59.2495 265.05 59.2495ZM 308.041 33.1387C 307.097 32.9814 306.075 32.9028 304.975 32.9028C 300.887 32.9028 298.113 34.6436 296.653 38.125L 296.653 64L 290.42 64L 290.42 27.5459L 296.484 27.5459L 296.585 31.7573C 298.629 28.5005 301.527 26.8721 305.278 26.8721C 306.491 26.8721 307.412 27.0293 308.041 27.3438L 308.041 33.1387ZM 328.255 64.6738C 323.314 64.6738 319.293 63.0566 316.194 59.8223C 313.094 56.5654 311.544 52.2192 311.544 46.7837L 311.544 45.6382C 311.544 42.022 312.229 38.7988 313.6 35.9688C 314.992 33.1162 316.924 30.8926 319.395 29.2979C 321.888 27.6807 324.583 26.8721 327.48 26.8721C 332.22 26.8721 335.903 28.4331 338.531 31.5552C 341.159 34.6772 342.473 39.147 342.473 44.9644L 342.473 47.5586L 317.777 47.5586C 317.867 51.1523 318.912 54.061 320.911 56.2847C 322.932 58.4858 325.493 59.5864 328.592 59.5864C 330.793 59.5864 332.658 59.1372 334.185 58.2388C 335.712 57.3403 337.049 56.1499 338.194 54.6675L 342.001 57.6323C 338.947 62.3267 334.365 64.6738 328.255 64.6738ZM 327.48 31.9932C 324.965 31.9932 322.854 32.9141 321.146 34.7559C 319.439 36.5752 318.384 39.1357 317.979 42.4375L 336.24 42.4375L 336.24 41.9658C 336.061 38.7988 335.207 36.3506 333.68 34.6211C 332.152 32.8691 330.086 31.9932 327.48 31.9932Z"/>
<path id="path1_fill" d="M 7.66016 98L 7.66016 22.6406L 33.4873 22.6406C 42.0101 22.6406 48.4971 24.3486 52.9482 27.7646C 57.3994 31.1807 59.625 36.2702 59.625 43.0332C 59.625 46.4837 58.6934 49.5892 56.8301 52.3496C 54.9668 55.11 52.2409 57.2493 48.6523 58.7676C 52.724 59.8717 55.8639 61.9593 58.0723 65.0303C 60.3151 68.0667 61.4365 71.7243 61.4365 76.0029C 61.4365 83.0765 59.1592 88.5111 54.6045 92.3066C 50.0843 96.1022 43.5973 98 35.1436 98L 7.66016 98ZM 20.7549 63.9951L 20.7549 87.5449L 35.2988 87.5449C 39.4049 87.5449 42.6139 86.527 44.9258 84.4912C 47.2376 82.4554 48.3936 79.626 48.3936 76.0029C 48.3936 68.1702 44.391 64.1676 36.3857 63.9951L 20.7549 63.9951ZM 20.7549 54.3682L 33.5908 54.3682C 37.6624 54.3682 40.8369 53.4538 43.1143 51.625C 45.4261 49.7617 46.582 47.1393 46.582 43.7578C 46.582 40.0312 45.5124 37.3398 43.373 35.6836C 41.2682 34.0273 37.973 33.1992 33.4873 33.1992L 20.7549 33.1992L 20.7549 54.3682ZM 123.877 64.3574L 92.926 64.3574L 92.926 87.5449L 129.105 87.5449L 129.105 98L 79.8313 98L 79.8313 22.6406L 128.742 22.6406L 128.742 33.1992L 92.926 33.1992L 92.926 54.0059L 123.877 54.0059L 123.877 64.3574ZM 158.162 87.5449L 192.373 87.5449L 192.373 98L 145.067 98L 145.067 22.6406L 158.162 22.6406L 158.162 87.5449ZM 221.534 98L 208.491 98L 208.491 22.6406L 221.534 22.6406L 221.534 98ZM 286.976 64.3574L 256.025 64.3574L 256.025 87.5449L 292.204 87.5449L 292.204 98L 242.93 98L 242.93 22.6406L 291.842 22.6406L 291.842 33.1992L 256.025 33.1992L 256.025 54.0059L 286.976 54.0059L 286.976 64.3574ZM 334.718 81.5928L 353.868 22.6406L 368.257 22.6406L 341.136 98L 328.455 98L 301.438 22.6406L 315.774 22.6406L 334.718 81.5928ZM 426.143 64.3574L 395.192 64.3574L 395.192 87.5449L 431.37 87.5449L 431.37 98L 382.097 98L 382.097 22.6406L 431.008 22.6406L 431.008 33.1992L 395.192 33.1992L 395.192 54.0059L 426.143 54.0059L 426.143 64.3574Z"/>
<path id="path2_fill" d="M 65.5 209L 95.5 209L 95.5 143.5L 78 143.5L 104.5 117L 104.5 73.5L 128 73.5L 128 89L 143.5 73.5L 209 139L 209 65.5L 143.5 65.5L 143.5 0L 65.5 0L 65.5 65.5L 0 65.5L 0 143.5L 65.5 143.5L 65.5 209Z"/>
<path id="path3_fill" d="M 100 139L 100 209L 143.5 209L 143.5 143.5L 208.5 143.5L 144 79.5L 124 98.5L 124 77.5L 108.5 77.5L 108.5 118.5L 88 139L 100 139Z"/>
</defs>
</svg>
